<svg id="Layer_1" data-name="Layer 1" xmlns="http://www.w3.org/2000/svg" viewBox="0 0 688.72 283.89"><defs><style>.cls-1{fill:#104c8f;}.cls-2{fill:#fbb32f;}.cls-3{fill:none;stroke:#231f20;stroke-miterlimit:10;stroke-width:2.25px;}</style></defs><path class="cls-1" d="M134.74,101.72c-25.43,0-42.38,16.84-42.38,46.09,0,23.45,15.44,41.22,39.48,41.22,7.66,0,15-2.09,21.36-8.13l12.19,9.52V152.69c-6,8.71-14.63,28.67-31,28.67-16.6,0-23.8-17.18-23.8-37.15s9.64-34.48,23.57-34.48c15,0,21,12.89,31.23,28.68V100.68l-11.61,9C148,104.39,140.54,101.72,134.74,101.72Z"/><polygon class="cls-1" points="198.24 99.86 175.94 114.72 184.31 118.79 184.31 178.69 175.83 186.94 207.18 186.94 198.12 178.81 198.24 99.86"/><path class="cls-1" d="M261.16,149.79c0-15.56-10.68-20.21-20.78-20.21h-1.86c-12,0-22.18,9.29-22.18,16.14,0,5.34,2.79,9.41,7.9,9.41a8.2,8.2,0,0,0,8-8.13c0-3.95-1.28-6.85-6.27-8.82,1.63-2.33,7.08-3,10.57-3,5.8,0,10.91,4.29,11.37,12.19h-.11c.11,10.1-10.92,11.38-19.28,13.35-7.19,1.74-14,6.5-14,14.63,0,5.22,3.36,13.23,14.16,13.23,7.66,0,15.67-4.29,19.27-10.56l2.91,8.94h19L261,177.77C261,172.42,261.16,154.55,261.16,149.79Zm-13.58,21.36c-2.56,6.15-9.18,8.71-13.36,8.71a5.65,5.65,0,0,1-5.92-5.58c0-4.41,2.33-7.08,8.59-9.87,3.84-1.5,8.13-3.71,10.92-7.31Z"/><polygon class="cls-1" points="295.98 131.2 273.69 141.43 282.05 145.72 282.05 178.81 273.69 186.94 304.92 186.94 295.98 178.81 295.98 131.2"/><path class="cls-1" d="M377,186.94h31.35l-9.05-8.13.11-28.44c0-13.24-7.31-20.21-17.65-20.21-9.17,0-14.39,4.19-17.87,11.27-2.67-7.43-8.6-11.27-16.26-11.27-8.47,0-13.7,3.6-17.18,9.76l-2.55-11.15-10.45,7v.11l-8.36,5.58,8.36,5.11v32.27l-8.36,8.13h31.34l-9.05-8.13V148c.58-3.13,2.55-9.28,10.1-9.28s9.75,6,9.87,15.79l-.12,24.26-8.36,8.13h31.35l-9.06-8.13.12-28.44v-.47s.35-11.14,10.33-11.14c7.66,0,9.75,6,9.87,15.79l-.12,24.26Z"/><path class="cls-2" d="M591.59,112.23a46.31,46.31,0,0,0-14.33-19.17q-12.88-9.93-39.19-9.93c-1.82,0-4.49,0-8,.07s-6.17.08-7.88.08c-1.87,0-4.67,0-8.38-.08s-6.51-.07-8.37-.07c-1.32,0-2,.53-2,1.59,0,3.49.07,8,.21,13.64a49.12,49.12,0,0,1,8.65,13.87,59.46,59.46,0,0,1,4.78,23.5q0,21.3-12.13,36.84c-.44.56-.89,1.1-1.35,1.64-.16,5.51-.24,10-.24,13.37a1.67,1.67,0,0,0,1.89,1.89c2.38,0,5.95-.1,10.73-.3s8.35-.31,10.72-.31q3.94,0,11.87.31t11.86.3q20.61,0,33.8-16.9,12.13-15.54,12.13-36.84A59.45,59.45,0,0,0,591.59,112.23ZM568.32,164a26.45,26.45,0,0,1-11.45,8.42q-5.16,1.82-13.87,1.82-12.29,0-11.06.07-9.11-.45-9.1-3.33,0-5.76-.27-17.29t-.26-17.28q0-5.83.26-17.47t.27-17.47c0-1.84,2.88-2.92,8.6-3.24q-1.43.13,11.11.13,16.22,0,25.92,10.69,9.31,10.31,9.32,26.68Q577.79,152.49,568.32,164Z"/><path class="cls-2" d="M507.29,112.23A46.4,46.4,0,0,0,493,93.06q-12.88-9.93-39.19-9.93-2.73,0-8,.07t-7.88.08c-1.87,0-4.67,0-8.38-.08s-6.51-.07-8.37-.07c-1.32,0-2,.53-2,1.59,0,4.85.14,11.76.41,20.67v61.27q-.49,13.68-.49,20.92a1.67,1.67,0,0,0,1.89,1.89c2.38,0,5.95-.1,10.73-.3s8.35-.31,10.72-.31q3.94,0,11.87.31t11.86.3q20.61,0,33.8-16.9,12.13-15.54,12.13-36.84A59.45,59.45,0,0,0,507.29,112.23ZM484,164a26.51,26.51,0,0,1-11.45,8.42q-5.16,1.82-13.87,1.82c-8.19,0-11.87,0-11.07.07q-9.09-.45-9.09-3.33c0-1.07,0-2.3,0-3.67-.89.08-1.78.14-2.69.14a31.46,31.46,0,0,1-3.79-.25h6.31V163a30.82,30.82,0,0,1,0-53.34v-4.35h.17c0-1.43,0-2.71,0-3.82,0-1.84,2.88-2.92,8.6-3.24q-1.42.13,11.11.13,16.22,0,25.92,10.69,9.31,10.31,9.32,26.68Q493.49,152.49,484,164Z"/><path class="cls-1" d="M455.65,125.81a10.49,10.49,0,1,0,10.49,10.49A10.5,10.5,0,0,0,455.65,125.81Zm0,19.34a8.85,8.85,0,1,1,8.86-8.85A8.86,8.86,0,0,1,455.65,145.15Z"/><path class="cls-1" d="M454,133.64c0,.78.47,1.24,1.34,1.52v-2.8A1.3,1.3,0,0,0,454,133.64Z"/><path class="cls-1" d="M456.05,137.05v3a1.45,1.45,0,0,0,1.37-1.52C457.42,137.9,457.13,137.45,456.05,137.05Z"/><path class="cls-1" d="M455.65,128.89a7.41,7.41,0,1,0,7.41,7.41A7.41,7.41,0,0,0,455.65,128.89Zm-3,5.36c0-1.32,1-2.36,2.78-2.52V130.6h.67v1.08a6.46,6.46,0,0,1,2.06.38,21.92,21.92,0,0,1,.38,2.18l-.62.15c-.26-.93-.71-1.86-1.82-2v3l.35.09c1.54.47,2.58,1.09,2.58,2.53s-1.2,2.58-2.93,2.75V142h-.67v-1.28a6,6,0,0,1-2.56-.59,22.56,22.56,0,0,1-.49-2.4l.6-.12c.33.92,1.09,2.27,2.45,2.45v-3.17"/><path class="cls-1" d="M470.16,134l-1.59-.43a13,13,0,0,0-1.86-4.47l.82-1.43a1,1,0,0,0-.34-1l-1.87-1.87a1,1,0,0,0-1.05-.34l-1.43.82a13.15,13.15,0,0,0-4.45-1.84l-.43-1.59c-.08-.29-.5-.5-1-.5h-2.65c-.49,0-.9.21-1,.5l-.43,1.59a13.14,13.14,0,0,0-4.48,1.86l-1.43-.81a1,1,0,0,0-1.05.33l-1.87,1.88a1,1,0,0,0-.33,1l.82,1.43a13.08,13.08,0,0,0-1.85,4.45l-1.58.43c-.29.08-.5.49-.5,1v2.64c0,.49.21.91.5,1l1.58.43a13,13,0,0,0,1.87,4.48l-.82,1.43a1,1,0,0,0,.34,1.05l1.87,1.87c.35.34.79.49,1.05.34l1.43-.82a13.15,13.15,0,0,0,4.45,1.84l.43,1.58a1,1,0,0,0,1,.51H457a1,1,0,0,0,1-.51l.43-1.58a13.2,13.2,0,0,0,4.47-1.86l1.44.81a1,1,0,0,0,1-.33l1.87-1.88a1,1,0,0,0,.34-1.05l-.82-1.43a13.15,13.15,0,0,0,1.84-4.45l1.59-.43c.29-.08.5-.49.5-1V135C470.66,134.49,470.45,134.07,470.16,134Zm-14.51,14.38a12.07,12.07,0,1,1,12.08-12.07A12.08,12.08,0,0,1,455.65,148.37Z"/><path class="cls-1" d="M455.65,107.45a28.85,28.85,0,1,0,28.86,28.85A28.88,28.88,0,0,0,455.65,107.45Zm0,55.79a26.94,26.94,0,1,1,26.94-26.94A27,27,0,0,1,455.65,163.24Z"/><rect class="cls-1" x="454.57" y="109.85" width="2.17" height="4.15"/><rect class="cls-1" x="454.57" y="158.59" width="2.17" height="4.15"/><rect class="cls-1" x="479.48" y="134.22" width="1.09" height="4.15" transform="translate(616.32 -343.72) rotate(90)"/><rect class="cls-1" x="430.74" y="134.22" width="1.09" height="4.15" transform="translate(567.58 -294.98) rotate(90)"/><rect class="cls-1" x="478.93" y="134.22" width="2.18" height="4.15" transform="translate(616.32 -343.72) rotate(90)"/><rect class="cls-1" x="430.19" y="134.22" width="2.18" height="4.15" transform="translate(567.58 -294.98) rotate(90)"/><rect class="cls-1" x="467.71" y="113.37" width="1.09" height="4.15" transform="translate(127.27 -225.61) rotate(31.16)"/><rect class="cls-1" x="442.5" y="155.08" width="1.09" height="4.15" transform="translate(145.21 -206.55) rotate(31.16)"/><rect class="cls-1" x="475.96" y="146.83" width="1.09" height="4.15" transform="translate(850.47 -181.83) rotate(121.16)"/><rect class="cls-1" x="434.25" y="121.62" width="1.09" height="4.15" transform="translate(765.6 -184.4) rotate(121.16)"/><rect class="cls-1" x="476.31" y="122.21" width="1.09" height="4.15" transform="translate(349.89 -351.86) rotate(60.46)"/><rect class="cls-1" x="433.9" y="146.24" width="1.09" height="4.15" transform="translate(349.3 -302.79) rotate(60.46)"/><rect class="cls-1" x="467.12" y="155.43" width="1.09" height="4.15" transform="translate(952.2 63.97) rotate(150.46)"/><rect class="cls-1" x="443.09" y="113.02" width="1.09" height="4.15" transform="translate(886.36 -3.48) rotate(150.46)"/><path class="cls-1" d="M455.22,114.61h.87a.45.45,0,0,1,.45.45v7.43a0,0,0,0,1,0,0h-1.76a0,0,0,0,1,0,0v-7.43a.45.45,0,0,1,.45-.45Z"/><path class="cls-1" d="M473.28,132.36h.56a.29.29,0,0,1,.29.29v7.59a0,0,0,0,1,0,0H473a0,0,0,0,1,0,0v-7.59A.29.29,0,0,1,473.28,132.36Z" transform="translate(609.86 -337.26) rotate(90)"/><path class="cls-2" d="M94.6,213V192.75h14.63v2.39h-12v6.2h11.19v2.37H97.28v6.89H109.7V213Z"/><path class="cls-2" d="M118.51,213l-5.57-14.66h2.62l3.15,8.78c.34.95.65,1.93.94,2.95.22-.77.52-1.7.92-2.78l3.26-8.95h2.55L120.83,213Z"/><path class="cls-2" d="M139.5,211.18a9.3,9.3,0,0,1-2.66,1.66,7.7,7.7,0,0,1-2.74.48,5.31,5.31,0,0,1-3.71-1.18,3.86,3.86,0,0,1-1.3-3,4.08,4.08,0,0,1,1.78-3.4,5.9,5.9,0,0,1,1.78-.81,17.6,17.6,0,0,1,2.21-.38,22.75,22.75,0,0,0,4.43-.85c0-.34,0-.56,0-.65a2.74,2.74,0,0,0-.71-2.14,4.14,4.14,0,0,0-2.83-.84,4.34,4.34,0,0,0-2.58.61,3.74,3.74,0,0,0-1.24,2.17l-2.43-.33a6,6,0,0,1,1.09-2.52,4.75,4.75,0,0,1,2.2-1.47,9.6,9.6,0,0,1,3.32-.52,8.91,8.91,0,0,1,3.05.44,4.11,4.11,0,0,1,1.73,1.11,3.82,3.82,0,0,1,.77,1.69,13.1,13.1,0,0,1,.13,2.29v3.32a34.14,34.14,0,0,0,.16,4.38,5.45,5.45,0,0,0,.62,1.76H140A5.12,5.12,0,0,1,139.5,211.18Zm-.21-5.55a18.17,18.17,0,0,1-4,.94,9.07,9.07,0,0,0-2.17.5,2.12,2.12,0,0,0-1,.81,2.17,2.17,0,0,0,.41,2.83,3.18,3.18,0,0,0,2.2.67,5.1,5.1,0,0,0,2.55-.63,3.83,3.83,0,0,0,1.64-1.72,6,6,0,0,0,.4-2.49Z"/><path class="cls-2" d="M147,213V192.75h2.48V213Z"/><path class="cls-2" d="M164.26,213v-2.15a5.37,5.37,0,0,1-4.65,2.48,5.92,5.92,0,0,1-2.42-.49,4.05,4.05,0,0,1-1.67-1.25,4.7,4.7,0,0,1-.77-1.85,12.71,12.71,0,0,1-.15-2.32v-9.08h2.48v8.13a13.42,13.42,0,0,0,.16,2.62,2.52,2.52,0,0,0,1,1.54,3,3,0,0,0,1.88.56,4.14,4.14,0,0,0,2.1-.57,3.16,3.16,0,0,0,1.38-1.56,7.63,7.63,0,0,0,.41-2.86v-7.86h2.49V213Z"/><path class="cls-2" d="M181.3,211.18a9.26,9.26,0,0,1-2.65,1.66,7.78,7.78,0,0,1-2.74.48,5.32,5.32,0,0,1-3.72-1.18,3.9,3.9,0,0,1-1.3-3,4.08,4.08,0,0,1,1.78-3.4,5.84,5.84,0,0,1,1.79-.81,17,17,0,0,1,2.2-.38,23.05,23.05,0,0,0,4.44-.85c0-.34,0-.56,0-.65a2.78,2.78,0,0,0-.7-2.14,4.18,4.18,0,0,0-2.83-.84,4.38,4.38,0,0,0-2.59.61,3.74,3.74,0,0,0-1.24,2.17l-2.43-.33a6.09,6.09,0,0,1,1.09-2.52,4.75,4.75,0,0,1,2.2-1.47,9.6,9.6,0,0,1,3.32-.52,9,9,0,0,1,3.06.44,4.13,4.13,0,0,1,1.72,1.11,3.82,3.82,0,0,1,.77,1.69,13.1,13.1,0,0,1,.13,2.29v3.32a34.14,34.14,0,0,0,.16,4.38,5.24,5.24,0,0,0,.63,1.76h-2.6A5.34,5.34,0,0,1,181.3,211.18Zm-.2-5.55a18.43,18.43,0,0,1-4.06.94,9.19,9.19,0,0,0-2.17.5,2.12,2.12,0,0,0-1,.81,2.17,2.17,0,0,0,.41,2.83,3.18,3.18,0,0,0,2.2.67,5.08,5.08,0,0,0,2.55-.63A3.86,3.86,0,0,0,180.7,209a6.13,6.13,0,0,0,.4-2.49Z"/><path class="cls-2" d="M194.24,210.77l.36,2.19a9,9,0,0,1-1.88.22,4.34,4.34,0,0,1-2.1-.42,2.41,2.41,0,0,1-1-1.13,8.6,8.6,0,0,1-.31-2.93v-8.44h-1.82v-1.93h1.82V194.7l2.47-1.49v5.12h2.5v1.93h-2.5v8.58a4.56,4.56,0,0,0,.13,1.36,1,1,0,0,0,.43.49,1.65,1.65,0,0,0,.85.18A8.91,8.91,0,0,0,194.24,210.77Z"/><path class="cls-2" d="M208.07,208.27l2.56.32a6.21,6.21,0,0,1-2.25,3.49,7.62,7.62,0,0,1-9.29-.74,7.71,7.71,0,0,1-1.89-5.55,8.11,8.11,0,0,1,1.91-5.75,6.44,6.44,0,0,1,4.94-2,6.27,6.27,0,0,1,4.8,2,7.92,7.92,0,0,1,1.87,5.63c0,.15,0,.37,0,.67H199.77a5.63,5.63,0,0,0,1.37,3.7,4.08,4.08,0,0,0,3.06,1.28,3.78,3.78,0,0,0,2.33-.72A4.75,4.75,0,0,0,208.07,208.27Zm-8.16-4h8.18a5,5,0,0,0-.93-2.77,3.82,3.82,0,0,0-3.08-1.44,3.94,3.94,0,0,0-2.88,1.15A4.49,4.49,0,0,0,199.91,204.25Z"/><path class="cls-1" d="M224.64,213V192.75h7a17,17,0,0,1,3.6.29,6.89,6.89,0,0,1,3,1.45,8.25,8.25,0,0,1,2.4,3.46,13.55,13.55,0,0,1,.79,4.81,14.12,14.12,0,0,1-.54,4.09,9.8,9.8,0,0,1-1.38,2.94,7.14,7.14,0,0,1-1.84,1.84,7.42,7.42,0,0,1-2.42,1,13.74,13.74,0,0,1-3.25.34Zm2.68-2.39h4.32a10.47,10.47,0,0,0,3.14-.37,4.6,4.6,0,0,0,1.82-1,6.36,6.36,0,0,0,1.48-2.56,12.63,12.63,0,0,0,.53-3.9,9.47,9.47,0,0,0-1-4.88,5.22,5.22,0,0,0-2.53-2.28,10.39,10.39,0,0,0-3.47-.42h-4.25Z"/><path class="cls-2" d="M256.13,208.27l2.57.32a6.21,6.21,0,0,1-2.25,3.49,7.63,7.63,0,0,1-9.3-.74,7.75,7.75,0,0,1-1.88-5.55,8.15,8.15,0,0,1,1.9-5.75,6.48,6.48,0,0,1,5-2,6.27,6.27,0,0,1,4.8,2,8,8,0,0,1,1.87,5.63c0,.15,0,.37,0,.67H247.84a5.63,5.63,0,0,0,1.36,3.7,4.09,4.09,0,0,0,3.07,1.28,3.78,3.78,0,0,0,2.33-.72A4.67,4.67,0,0,0,256.13,208.27Zm-8.15-4h8.18a4.9,4.9,0,0,0-.94-2.77,3.79,3.79,0,0,0-3.08-1.44,3.9,3.9,0,0,0-2.87,1.15A4.49,4.49,0,0,0,248,204.25Z"/><path class="cls-2" d="M263.12,213V192.75h2.49V213Z"/><path class="cls-2" d="M280.38,211.18a9.26,9.26,0,0,1-2.65,1.66,7.74,7.74,0,0,1-2.74.48,5.34,5.34,0,0,1-3.72-1.18,3.89,3.89,0,0,1-1.29-3,4.1,4.1,0,0,1,1.77-3.4,5.84,5.84,0,0,1,1.79-.81,17.26,17.26,0,0,1,2.21-.38,23.08,23.08,0,0,0,4.43-.85c0-.34,0-.56,0-.65a2.74,2.74,0,0,0-.7-2.14,4.18,4.18,0,0,0-2.83-.84,4.4,4.4,0,0,0-2.59.61,3.74,3.74,0,0,0-1.24,2.17l-2.43-.33a6.09,6.09,0,0,1,1.09-2.52,4.75,4.75,0,0,1,2.2-1.47A9.66,9.66,0,0,1,277,198a8.91,8.91,0,0,1,3.05.44,4.13,4.13,0,0,1,1.72,1.11,4,4,0,0,1,.78,1.69,14.55,14.55,0,0,1,.12,2.29v3.32a34.14,34.14,0,0,0,.16,4.38,5.47,5.47,0,0,0,.63,1.76h-2.6A5.34,5.34,0,0,1,280.38,211.18Zm-.2-5.55a18.29,18.29,0,0,1-4.06.94,9.19,9.19,0,0,0-2.17.5,2.12,2.12,0,0,0-1,.81,2.2,2.2,0,0,0,.41,2.83,3.18,3.18,0,0,0,2.2.67,5.08,5.08,0,0,0,2.55-.63,3.86,3.86,0,0,0,1.65-1.72,6.13,6.13,0,0,0,.4-2.49Z"/><path class="cls-2" d="M287.79,218.64l-.28-2.34a5.54,5.54,0,0,0,1.42.23,2.77,2.77,0,0,0,1.33-.28,2.21,2.21,0,0,0,.81-.77,12.11,12.11,0,0,0,.76-1.85l.22-.61-5.56-14.69h2.68l3.05,8.49c.4,1.08.75,2.21,1.06,3.4.29-1.14.63-2.26,1-3.34l3.14-8.55h2.48l-5.57,14.91a30,30,0,0,1-1.4,3.33,4.87,4.87,0,0,1-1.52,1.8,3.59,3.59,0,0,1-2,.57A5,5,0,0,1,287.79,218.64Z"/><path class="cls-2" d="M322.17,211.18a9.16,9.16,0,0,1-2.66,1.66,7.7,7.7,0,0,1-2.74.48,5.31,5.31,0,0,1-3.71-1.18,3.9,3.9,0,0,1-1.3-3,4.08,4.08,0,0,1,1.78-3.4,5.9,5.9,0,0,1,1.78-.81,17.6,17.6,0,0,1,2.21-.38,22.75,22.75,0,0,0,4.43-.85c0-.34,0-.56,0-.65a2.74,2.74,0,0,0-.71-2.14,4.14,4.14,0,0,0-2.83-.84,4.36,4.36,0,0,0-2.58.61,3.74,3.74,0,0,0-1.24,2.17l-2.43-.33a6.09,6.09,0,0,1,1.09-2.52,4.75,4.75,0,0,1,2.2-1.47,9.6,9.6,0,0,1,3.32-.52,8.91,8.91,0,0,1,3.05.44,4.11,4.11,0,0,1,1.73,1.11,3.82,3.82,0,0,1,.77,1.69,13.1,13.1,0,0,1,.13,2.29v3.32a34.14,34.14,0,0,0,.16,4.38,5.45,5.45,0,0,0,.62,1.76h-2.59A5.34,5.34,0,0,1,322.17,211.18Zm-.21-5.55a18.17,18.17,0,0,1-4,.94,9.07,9.07,0,0,0-2.17.5,2.12,2.12,0,0,0-1,.81,2.17,2.17,0,0,0,.41,2.83,3.18,3.18,0,0,0,2.2.67,5.08,5.08,0,0,0,2.55-.63,3.83,3.83,0,0,0,1.64-1.72,6,6,0,0,0,.4-2.49Z"/><path class="cls-2" d="M329.69,213V198.33h2.23v2.09a5.26,5.26,0,0,1,4.67-2.42,6.31,6.31,0,0,1,2.44.47,3.9,3.9,0,0,1,1.66,1.25,4.85,4.85,0,0,1,.77,1.84,14.45,14.45,0,0,1,.14,2.42v9h-2.48v-8.92a6.78,6.78,0,0,0-.29-2.27,2.44,2.44,0,0,0-1-1.2,3.29,3.29,0,0,0-1.74-.45,4.05,4.05,0,0,0-2.74,1c-.77.67-1.15,2-1.15,3.82v8Z"/><path class="cls-2" d="M356.28,213v-1.85a4.55,4.55,0,0,1-4.1,2.18,5.76,5.76,0,0,1-3.22-1,6.37,6.37,0,0,1-2.28-2.7,9.35,9.35,0,0,1-.81-4,10.37,10.37,0,0,1,.73-4,5.8,5.8,0,0,1,2.2-2.74,5.88,5.88,0,0,1,3.27-.95,4.89,4.89,0,0,1,4,2v-7.26h2.47V213Zm-7.86-7.32a6.35,6.35,0,0,0,1.19,4.21,3.59,3.59,0,0,0,2.8,1.4,3.51,3.51,0,0,0,2.77-1.33,6.16,6.16,0,0,0,1.14-4.07,6.94,6.94,0,0,0-1.16-4.42,3.59,3.59,0,0,0-2.86-1.4,3.44,3.44,0,0,0-2.76,1.35A6.6,6.6,0,0,0,348.42,205.67Z"/><path class="cls-1" d="M373.38,213V192.75h7a17.13,17.13,0,0,1,3.6.29,6.89,6.89,0,0,1,3,1.45,8.25,8.25,0,0,1,2.4,3.46,13.55,13.55,0,0,1,.79,4.81,14.12,14.12,0,0,1-.54,4.09,9.8,9.8,0,0,1-1.38,2.94,7.14,7.14,0,0,1-1.84,1.84,7.42,7.42,0,0,1-2.42,1,13.74,13.74,0,0,1-3.25.34Zm2.68-2.39h4.32a10.47,10.47,0,0,0,3.14-.37,4.49,4.49,0,0,0,1.81-1,6.38,6.38,0,0,0,1.49-2.56,12.63,12.63,0,0,0,.53-3.9,9.47,9.47,0,0,0-1-4.88,5.19,5.19,0,0,0-2.54-2.28,10.28,10.28,0,0,0-3.46-.42h-4.25Z"/><path class="cls-2" d="M394.85,195.61v-2.86h2.48v2.86Zm0,17.38V198.33h2.48V213Z"/><path class="cls-2" d="M401.48,208.62l2.46-.39a3.43,3.43,0,0,0,1.15,2.26,4,4,0,0,0,2.64.79,3.85,3.85,0,0,0,2.54-.7,2.05,2.05,0,0,0,.83-1.63,1.5,1.5,0,0,0-.73-1.33,10.87,10.87,0,0,0-2.54-.84,24.19,24.19,0,0,1-3.79-1.19,3.76,3.76,0,0,1-1.7-5.18,4.08,4.08,0,0,1,1.22-1.39,5.13,5.13,0,0,1,1.59-.72,7.38,7.38,0,0,1,2.14-.3,8.3,8.3,0,0,1,3,.5,4.19,4.19,0,0,1,1.93,1.34,5.29,5.29,0,0,1,.85,2.27l-2.43.33a2.64,2.64,0,0,0-1-1.76,3.44,3.44,0,0,0-2.24-.64,4,4,0,0,0-2.44.57,1.64,1.64,0,0,0-.73,1.32,1.37,1.37,0,0,0,.3.87,2.21,2.21,0,0,0,.95.67c.25.09,1,.3,2.2.63a30.85,30.85,0,0,1,3.68,1.15,3.73,3.73,0,0,1,1.63,1.31,3.61,3.61,0,0,1,.6,2.12,4.12,4.12,0,0,1-.73,2.34,4.62,4.62,0,0,1-2.09,1.7,7.6,7.6,0,0,1-3.09.6,6.91,6.91,0,0,1-4.36-1.18A5.57,5.57,0,0,1,401.48,208.62Z"/><path class="cls-2" d="M417.94,213V198.33h2.24v2.22a5.92,5.92,0,0,1,1.58-2.05,2.68,2.68,0,0,1,1.59-.5,4.91,4.91,0,0,1,2.56.8l-.86,2.3a3.65,3.65,0,0,0-1.82-.53,2.37,2.37,0,0,0-1.47.49,2.61,2.61,0,0,0-.92,1.36,9.54,9.54,0,0,0-.41,2.9V213Z"/><path class="cls-2" d="M438.35,213v-2.15a5.37,5.37,0,0,1-4.65,2.48,6,6,0,0,1-2.43-.49,4.12,4.12,0,0,1-1.67-1.25,4.69,4.69,0,0,1-.76-1.85,12.71,12.71,0,0,1-.15-2.32v-9.08h2.48v8.13a14.6,14.6,0,0,0,.15,2.62,2.57,2.57,0,0,0,1,1.54,3,3,0,0,0,1.87.56,4.09,4.09,0,0,0,2.1-.57,3.14,3.14,0,0,0,1.39-1.56,7.84,7.84,0,0,0,.41-2.86v-7.86h2.48V213Z"/><path class="cls-2" d="M445.82,218.61V198.33h2.27v1.91a5.47,5.47,0,0,1,1.8-1.68,5,5,0,0,1,2.45-.56,5.82,5.82,0,0,1,3.31,1,6,6,0,0,1,2.17,2.73,9.94,9.94,0,0,1,.73,3.86,9.76,9.76,0,0,1-.81,4,6.13,6.13,0,0,1-2.34,2.76,6,6,0,0,1-3.24,1,4.67,4.67,0,0,1-2.23-.52,5,5,0,0,1-1.62-1.33v7.14Zm2.25-12.87a6.37,6.37,0,0,0,1.15,4.19,3.51,3.51,0,0,0,2.77,1.35,3.61,3.61,0,0,0,2.84-1.4,6.64,6.64,0,0,0,1.18-4.34,6.48,6.48,0,0,0-1.15-4.2A3.47,3.47,0,0,0,452.1,200a3.58,3.58,0,0,0-2.81,1.48A6.67,6.67,0,0,0,448.07,205.74Z"/><path class="cls-2" d="M468.33,210.77l.36,2.19a9.06,9.06,0,0,1-1.88.22,4.34,4.34,0,0,1-2.1-.42,2.38,2.38,0,0,1-1-1.13,9,9,0,0,1-.3-2.93v-8.44h-1.82v-1.93h1.82V194.7l2.47-1.49v5.12h2.5v1.93h-2.5v8.58a4.24,4.24,0,0,0,.13,1.36,1,1,0,0,0,.43.49,1.65,1.65,0,0,0,.85.18A9.08,9.08,0,0,0,468.33,210.77Z"/><path class="cls-2" d="M472.13,195.61v-2.86h2.48v2.86Zm0,17.38V198.33h2.48V213Z"/><path class="cls-2" d="M478.83,205.66c0-2.71.75-4.73,2.26-6A6.8,6.8,0,0,1,485.7,198a6.59,6.59,0,0,1,4.95,2,7.58,7.58,0,0,1,1.91,5.47,9.84,9.84,0,0,1-.84,4.46,5.94,5.94,0,0,1-2.48,2.51,7.17,7.17,0,0,1-3.54.9,6.55,6.55,0,0,1-5-2A7.87,7.87,0,0,1,478.83,205.66Zm2.55,0a6.25,6.25,0,0,0,1.23,4.22,4,4,0,0,0,3.09,1.4,3.91,3.91,0,0,0,3.08-1.41,6.39,6.39,0,0,0,1.23-4.29,6.05,6.05,0,0,0-1.23-4.12,4.11,4.11,0,0,0-6.17,0A6.21,6.21,0,0,0,481.38,205.66Z"/><path class="cls-2" d="M496.83,213V198.33h2.24v2.09a5.26,5.26,0,0,1,4.67-2.42,6.23,6.23,0,0,1,2.43.47,3.93,3.93,0,0,1,1.67,1.25,4.85,4.85,0,0,1,.77,1.84,14.45,14.45,0,0,1,.14,2.42v9h-2.49v-8.92a6.52,6.52,0,0,0-.29-2.27,2.38,2.38,0,0,0-1-1.2,3.32,3.32,0,0,0-1.74-.45,4,4,0,0,0-2.74,1c-.77.67-1.15,2-1.15,3.82v8Z"/><path class="cls-2" d="M537.89,205.9l2.67.67a9,9,0,0,1-3,5,8.31,8.31,0,0,1-5.35,1.74,9.6,9.6,0,0,1-5.32-1.34,8.36,8.36,0,0,1-3.12-3.85,13.88,13.88,0,0,1-1.07-5.43,11.94,11.94,0,0,1,1.21-5.51,8.27,8.27,0,0,1,3.44-3.58,10,10,0,0,1,4.91-1.22,8.28,8.28,0,0,1,5.1,1.54,8,8,0,0,1,2.89,4.35l-2.64.62a6.25,6.25,0,0,0-2-3.21,5.46,5.46,0,0,0-3.37-1,6.54,6.54,0,0,0-3.9,1.12,5.86,5.86,0,0,0-2.2,3,12.93,12.93,0,0,0,.12,8.39,5.55,5.55,0,0,0,2.34,2.88A6.48,6.48,0,0,0,532,211a5.78,5.78,0,0,0,3.81-1.29A6.68,6.68,0,0,0,537.89,205.9Z"/><path class="cls-2" d="M544,205.66c0-2.71.75-4.73,2.26-6a6.8,6.8,0,0,1,4.61-1.63,6.59,6.59,0,0,1,4.95,2,7.53,7.53,0,0,1,1.91,5.47,9.84,9.84,0,0,1-.84,4.46,5.94,5.94,0,0,1-2.48,2.51,7.17,7.17,0,0,1-3.54.9,6.55,6.55,0,0,1-5-2A7.87,7.87,0,0,1,544,205.66Zm2.55,0a6.25,6.25,0,0,0,1.23,4.22,4,4,0,0,0,3.09,1.4,3.91,3.91,0,0,0,3.08-1.41,6.39,6.39,0,0,0,1.23-4.29,6.05,6.05,0,0,0-1.23-4.12,4.11,4.11,0,0,0-6.17,0A6.21,6.21,0,0,0,546.53,205.66Z"/><path class="cls-2" d="M561,208.62l2.46-.39a3.43,3.43,0,0,0,1.15,2.26,4,4,0,0,0,2.64.79,3.88,3.88,0,0,0,2.55-.7,2.07,2.07,0,0,0,.82-1.63,1.5,1.5,0,0,0-.73-1.33,10.87,10.87,0,0,0-2.54-.84,24.19,24.19,0,0,1-3.79-1.19,3.78,3.78,0,0,1-1.7-5.18,4,4,0,0,1,1.23-1.39,5,5,0,0,1,1.58-.72,7.38,7.38,0,0,1,2.14-.3,8.3,8.3,0,0,1,3,.5,4.19,4.19,0,0,1,1.93,1.34,5.42,5.42,0,0,1,.86,2.27l-2.43.33a2.72,2.72,0,0,0-1-1.76A3.49,3.49,0,0,0,567,200a4,4,0,0,0-2.44.57,1.64,1.64,0,0,0-.73,1.32,1.37,1.37,0,0,0,.3.87,2.21,2.21,0,0,0,.95.67c.25.09,1,.3,2.2.63a30.85,30.85,0,0,1,3.68,1.15,3.73,3.73,0,0,1,1.63,1.31,3.61,3.61,0,0,1,.6,2.12,4.12,4.12,0,0,1-.73,2.34,4.62,4.62,0,0,1-2.09,1.7,7.6,7.6,0,0,1-3.09.6,6.91,6.91,0,0,1-4.36-1.18A5.57,5.57,0,0,1,561,208.62Z"/><path class="cls-2" d="M582.9,210.77l.36,2.19a9,9,0,0,1-1.88.22,4.27,4.27,0,0,1-2.09-.42,2.38,2.38,0,0,1-1-1.13,8.87,8.87,0,0,1-.31-2.93v-8.44h-1.82v-1.93h1.82V194.7l2.47-1.49v5.12h2.5v1.93h-2.5v8.58a4.14,4.14,0,0,0,.14,1.36,1,1,0,0,0,.42.49,1.65,1.65,0,0,0,.85.18A8.91,8.91,0,0,0,582.9,210.77Z"/><path class="cls-2" d="M281.8,129.21h-.66a25.82,25.82,0,0,1-4.45-.51h0A25.1,25.1,0,0,1,259.4,92.83a25.37,25.37,0,0,1,7.12-8.59,25,25,0,0,1,12.62-5.06,26.86,26.86,0,0,1,2.71-.14,23.66,23.66,0,0,1,2.37.12,24.88,24.88,0,0,1,12.87,5.09,25.18,25.18,0,0,1,7.13,8.62,24.84,24.84,0,0,1,2.66,11.3h0a24.83,24.83,0,0,1-2.6,11.09,25.08,25.08,0,0,1-17.73,13.5h-.1A25.78,25.78,0,0,1,281.8,129.21Zm-4.93-1.3a25,25,0,0,0,4.29.49h.59a24.58,24.58,0,0,0,4.54-.42h.06a24.16,24.16,0,0,0,10.62-4.9,24.5,24.5,0,0,0,6.59-8.17,24.32,24.32,0,0,0-.06-21.68,24.43,24.43,0,0,0-6.9-8.35A24.06,24.06,0,0,0,284.14,80c-.76-.08-1.54-.11-2.29-.12a25,25,0,0,0-2.62.14A24.19,24.19,0,0,0,267,84.87a24.51,24.51,0,0,0-6.89,8.32,24.28,24.28,0,0,0-.14,21.58,24.31,24.31,0,0,0,16.8,13.12h.05Z"/><path class="cls-3" d="M281.88,79.54H282"/><path class="cls-1" d="M303.94,115a24.7,24.7,0,0,1-17.47,13.33h0l-1.22,0-1.72,0c2.41-1,4.54-4,6.08-8.17a41.45,41.45,0,0,0,2-8.39,52.9,52.9,0,0,1,8.38,1.69A27.93,27.93,0,0,1,303.94,115Z"/><path class="cls-2" d="M263.86,113.48a24.28,24.28,0,0,0,4.84,8.69l.08.09a16.8,16.8,0,0,0,12.69,5.88h.23l.07.66h-.3a17.45,17.45,0,0,1-13.09-6h0l-.1-.11a25,25,0,0,1-5-9Z"/><path class="cls-2" d="M272.3,111.85a39.48,39.48,0,0,0,2.08,8.71c1.83,4.88,4.4,7.58,7.22,7.58h.1l.07.66h-.18c-3.11,0-5.9-2.86-7.84-8a40,40,0,0,1-2.11-8.86Z"/><path class="cls-2" d="M281.83,119.55h.08a37.7,37.7,0,0,1,7.41.73l-.13.65a38.44,38.44,0,0,0-15.06.07,25.73,25.73,0,0,0-5.46,1.78l-.07,0a15.08,15.08,0,0,0-1.65.91l-.36-.57a17.73,17.73,0,0,1,1.8-1l.07,0a25.82,25.82,0,0,1,5.53-1.8A37.55,37.55,0,0,1,281.83,119.55Z"/><path class="cls-2" d="M281.78,111H282a77.94,77.94,0,0,1,9.59.58,53.45,53.45,0,0,1,8.39,1.66,28.77,28.77,0,0,1,4.07,1.48l-.28.61a28.74,28.74,0,0,0-4-1.45,53.19,53.19,0,0,0-8.28-1.64,80.7,80.7,0,0,0-9.51-.58,81.71,81.71,0,0,0-9.94.59,53.76,53.76,0,0,0-8.37,1.68,28.57,28.57,0,0,0-3.74,1.36l-.28-.6a28.48,28.48,0,0,1,3.83-1.4,54,54,0,0,1,8.48-1.7A80.22,80.22,0,0,1,281.78,111Z"/><path class="cls-2" d="M259.68,93.21a24.72,24.72,0,0,1,17.47-13.32h0l1.23,0,1.72,0c-2.41,1-4.54,3.95-6.09,8.17a42.16,42.16,0,0,0-2,8.39,52.67,52.67,0,0,1-8.38-1.69A27.93,27.93,0,0,1,259.68,93.21Z"/><path class="cls-2" d="M299.76,94.77a24.37,24.37,0,0,0-4.84-8.69l-.08-.09a16.8,16.8,0,0,0-12.69-5.88h-.23l-.08-.66h.31a17.45,17.45,0,0,1,13.09,6h0l.1.12a25,25,0,0,1,5.05,9Z"/><path class="cls-2" d="M291.32,96.4a39.82,39.82,0,0,0-2.08-8.7c-1.83-4.89-4.4-7.58-7.22-7.59h-.1l-.08-.66H282c3.12,0,5.91,2.86,7.85,8A40.29,40.29,0,0,1,292,96.32Z"/><path class="cls-2" d="M281.79,88.7h-.08A37.7,37.7,0,0,1,274.3,88l.13-.65a38.39,38.39,0,0,0,15.05-.07A25.63,25.63,0,0,0,295,85.47l.07,0a15.08,15.08,0,0,0,1.65-.91l.36.57a18.88,18.88,0,0,1-1.8,1l-.07,0a25.19,25.19,0,0,1-5.54,1.8A37.45,37.45,0,0,1,281.79,88.7Z"/><path class="cls-2" d="M281.84,97.28h-.17a77.94,77.94,0,0,1-9.59-.58A53.45,53.45,0,0,1,263.69,95a28.77,28.77,0,0,1-4.07-1.48l.28-.61a27.5,27.5,0,0,0,4,1.45A53.19,53.19,0,0,0,272.16,96a78.48,78.48,0,0,0,9.51.58,79.87,79.87,0,0,0,9.94-.59A52.62,52.62,0,0,0,300,94.35,28.57,28.57,0,0,0,303.72,93l.28.6a28.48,28.48,0,0,1-3.83,1.4,52.9,52.9,0,0,1-8.48,1.7A80.22,80.22,0,0,1,281.84,97.28Z"/><path class="cls-1" d="M260.57,105.13v-1.28H263v2.62a4.66,4.66,0,0,1-1.22.79,3.39,3.39,0,0,1-1.26.21,2.59,2.59,0,0,1-1.46-.38,2.42,2.42,0,0,1-.88-1.11,4.48,4.48,0,0,1-.31-1.7,4.27,4.27,0,0,1,.34-1.75,2.41,2.41,0,0,1,1-1.13,2.72,2.72,0,0,1,1.38-.3,3.24,3.24,0,0,1,1.24.18,1.68,1.68,0,0,1,.69.58,2.68,2.68,0,0,1,.41,1l-1.5.33a1.1,1.1,0,0,0-.31-.54.88.88,0,0,0-.57-.18.93.93,0,0,0-.81.43,2.39,2.39,0,0,0-.31,1.38,2.48,2.48,0,0,0,.31,1.43,1,1,0,0,0,.86.43,1.16,1.16,0,0,0,.49-.1,2.45,2.45,0,0,0,.55-.31v-.58Z"/><path class="cls-1" d="M263.7,104.29a3.65,3.65,0,0,1,.68-2.35,2.65,2.65,0,0,1,3.85,0,3.5,3.5,0,0,1,.68,2.31,4.77,4.77,0,0,1-.29,1.78,2.48,2.48,0,0,1-.86,1.07,2.41,2.41,0,0,1-1.4.39,2.72,2.72,0,0,1-1.41-.34,2.44,2.44,0,0,1-.91-1A4.11,4.11,0,0,1,263.7,104.29Zm1.55,0a2.38,2.38,0,0,0,.29,1.34.93.93,0,0,0,1.54,0,2.58,2.58,0,0,0,.28-1.43,2.22,2.22,0,0,0-.29-1.27.9.9,0,0,0-.78-.4.86.86,0,0,0-.75.41A2.4,2.4,0,0,0,265.25,104.29Z"/><path class="cls-1" d="M269.56,104.29a3.6,3.6,0,0,1,.68-2.35,2.65,2.65,0,0,1,3.85,0,3.5,3.5,0,0,1,.68,2.31,4.56,4.56,0,0,1-.3,1.78,2.28,2.28,0,0,1-2.25,1.46,2.72,2.72,0,0,1-1.41-.34,2.38,2.38,0,0,1-.91-1A4.11,4.11,0,0,1,269.56,104.29Zm1.55,0a2.48,2.48,0,0,0,.28,1.34.89.89,0,0,0,.78.41.87.87,0,0,0,.77-.4,2.67,2.67,0,0,0,.28-1.43,2.22,2.22,0,0,0-.29-1.27.9.9,0,0,0-.78-.4.86.86,0,0,0-.75.41A2.4,2.4,0,0,0,271.11,104.29Z"/><path class="cls-1" d="M275.63,101.2h2.31a2.31,2.31,0,0,1,1.1.23,1.82,1.82,0,0,1,.7.65,2.94,2.94,0,0,1,.4,1,5.65,5.65,0,0,1,.12,1.19,5.06,5.06,0,0,1-.18,1.53,2.51,2.51,0,0,1-.51.91,1.58,1.58,0,0,1-.7.49,3.06,3.06,0,0,1-.93.17h-2.31Zm1.56,1.4V106h.38a1.33,1.33,0,0,0,.69-.13.81.81,0,0,0,.32-.46,3.43,3.43,0,0,0,.12-1.07,2.48,2.48,0,0,0-.26-1.34,1,1,0,0,0-.87-.36Z"/><path class="cls-1" d="M283.43,101.2h3.85v1.33H285v1.07h1.95v1.24H285v2.52h-1.56Z"/><path class="cls-1" d="M290.55,106.34h-1.77l-.24,1H287l1.89-6.16h1.7l1.89,6.16H290.8Zm-.33-1.33-.55-2.21-.55,2.21Z"/><path class="cls-1" d="M293,101.2h1.56v6.16H293Z"/><path class="cls-1" d="M295.31,101.2H300v1.52h-1.58v4.64h-1.56v-4.64h-1.58Z"/><path class="cls-1" d="M300.75,101.2h1.55v2.16H304V101.2h1.56v6.16H304v-2.49h-1.7v2.49h-1.55Z"/><path class="cls-1" d="M550,125a13,13,0,1,0,13,13A13,13,0,0,0,550,125Zm0,23.29A10.25,10.25,0,1,1,560.28,138,10.25,10.25,0,0,1,550,148.29Z"/><path class="cls-1" d="M575.65,136.42l-3.11-.64a21.49,21.49,0,0,0-.61-3.33l0,.06,2.71-1.66a.73.73,0,0,0,.16-.87l-.58-1.62a.75.75,0,0,0-.68-.57l-3.15.47v0c-.26-.55-.55-1.1-.86-1.63l0,0,2.16-2.34a.74.74,0,0,0-.09-.88l-1-1.4a.74.74,0,0,0-.8-.36L566.94,123l0,0a22.43,22.43,0,0,0-2-2l.07.05,1.32-2.91a.74.74,0,0,0-.36-.8l-1.39-1a.75.75,0,0,0-.88-.09l-2.35,2.15,0,0a21,21,0,0,0-2.31-1.19l.37-3.16a.75.75,0,0,0-.59-.66L557.3,113a.73.73,0,0,0-.86.19l-1.57,2.76a24.76,24.76,0,0,0-2.58-.42l-.64-3.1a.73.73,0,0,0-.76-.45h-1.72a.72.72,0,0,0-.76.45l-.64,3.1a24.15,24.15,0,0,0-3.33.61l.06,0-1.66-2.72a.74.74,0,0,0-.87-.16l-1.62.59a.75.75,0,0,0-.57.68l.47,3.15,0,0c-.55.27-1.1.55-1.63.86h0l-2.34-2.16a.72.72,0,0,0-.88.09l-1.4,1a.75.75,0,0,0-.36.81l1.32,2.91.05,0a22.43,22.43,0,0,0-2,2l0-.07-2.91-1.32a.71.71,0,0,0-.8.36l-1,1.39a.75.75,0,0,0-.09.88l2.15,2.35,0,0a21.74,21.74,0,0,0-1.19,2.3l-3.17-.36c-.25,0-.54.22-.66.59l-.53,1.63a.74.74,0,0,0,.19.87l2.76,1.57a23.93,23.93,0,0,0-.42,2.58l-3.1.64a.72.72,0,0,0-.45.76v1.72a.73.73,0,0,0,.45.76l3.1.64a24,24,0,0,0,.61,3.32l0-.05-2.72,1.66a.74.74,0,0,0-.16.87l.59,1.62c.13.36.42.6.68.56l3.15-.46,0,0c.27.56.55,1.1.86,1.63v0l-2.16,2.35a.72.72,0,0,0,.09.88l1,1.39a.72.72,0,0,0,.81.36l2.91-1.31,0-.06a22.54,22.54,0,0,0,1.95,2l-.07,0-1.32,2.9a.72.72,0,0,0,.36.81l1.39,1a.71.71,0,0,0,.87.09l2.36-2.15,0,0a21.74,21.74,0,0,0,2.3,1.19l-.36,3.16c0,.26.22.54.59.66l1.63.54a.75.75,0,0,0,.87-.19l1.57-2.76a21.68,21.68,0,0,0,2.58.41l.64,3.11a.72.72,0,0,0,.76.45h1.72a.73.73,0,0,0,.76-.45l.64-3.11a21.37,21.37,0,0,0,3.32-.61l-.05,0,1.66,2.71a.73.73,0,0,0,.87.16l1.62-.58c.36-.13.6-.42.56-.68l-.46-3.15h0c.56-.26,1.1-.55,1.63-.86l0,0,2.35,2.16a.74.74,0,0,0,.88-.09l1.39-1a.71.71,0,0,0,.36-.8L565,155l-.06,0a22.54,22.54,0,0,0,2-2l-.05.07,2.9,1.32a.75.75,0,0,0,.81-.36l1-1.39a.72.72,0,0,0,.09-.88l-2.15-2.35,0,0a21.74,21.74,0,0,0,1.19-2.3l3.16.36c.26,0,.54-.23.66-.59l.53-1.64a.72.72,0,0,0-.18-.86l-2.76-1.57a22.34,22.34,0,0,0,.41-2.58l3.11-.64a.73.73,0,0,0,.45-.76v-1.72A.72.72,0,0,0,575.65,136.42ZM550,155A16.91,16.91,0,1,1,566.94,138,16.91,16.91,0,0,1,550,155Z"/></svg>